<?xml version="1.0" encoding="UTF-8" standalone="no"?>
<svg width="398px" height="464px" viewBox="0 0 398 464" version="1.1" xmlns="http://www.w3.org/2000/svg" xmlns:xlink="http://www.w3.org/1999/xlink">
    <!-- Generator: Sketch 39.1 (31720) - http://www.bohemiancoding.com/sketch -->
    <title>Shape</title>
    <desc>Created with Sketch.</desc>
    <defs></defs>
    <g id="Page-1" stroke="none" stroke-width="1" fill="none" fill-rule="evenodd">
        <g id="Group" fill="#000033">
            <path d="M397.387097,217.032258 L309.077419,0 L89.0516129,0 L0.741935484,217.032258 L169.129032,217.032258 L169.129032,411.612903 L131.709677,411.612903 C107.012903,411.612903 86.8064516,431.819355 86.8064516,456.516129 L86.8064516,464 L311.322581,464 L311.322581,456.516129 C311.322581,431.819355 291.116129,411.612903 266.419355,411.612903 L229,411.612903 L229,217.032258 L311.322581,217.032258 L311.322581,306.83871 L296.354839,306.83871 L296.354839,321.806452 L341.258065,321.806452 L341.258065,306.83871 L326.290323,306.83871 L326.290323,217.032258 L397.387097,217.032258 Z M266.419355,426.580645 C280.63871,426.580645 291.864516,436.309677 295.606452,449.032258 L102.522581,449.032258 C105.516129,436.309677 117.490323,426.580645 131.709677,426.580645 L169.129032,426.580645 L229,426.580645 L266.419355,426.580645 L266.419355,426.580645 Z M214.032258,411.612903 L184.096774,411.612903 L184.096774,217.032258 L214.032258,217.032258 L214.032258,411.612903 L214.032258,411.612903 Z M169.129032,202.064516 L23.1935484,202.064516 L99.5290323,14.9677419 L299.348387,14.9677419 L375.683871,202.064516 L229,202.064516 L169.129032,202.064516 L169.129032,202.064516 Z" id="Shape"></path>
        </g>
    </g>
</svg>