<?xml version="1.0" encoding="UTF-8" standalone="no"?>
<svg width="402px" height="467px" viewBox="0 0 402 467" version="1.1" xmlns="http://www.w3.org/2000/svg" xmlns:xlink="http://www.w3.org/1999/xlink">
    <!-- Generator: Sketch 39.1 (31720) - http://www.bohemiancoding.com/sketch -->
    <title>Group</title>
    <desc>Created with Sketch.</desc>
    <defs></defs>
    <g id="Page-1" stroke="none" stroke-width="1" fill="none" fill-rule="evenodd">
        <g id="Group" transform="translate(2.000000, 2.000000)" stroke="#000033" stroke-width="3" fill="#000033">
            <path d="M135.6,37.6 C135.6,43.6 137.4,46.6 139.2,49 L139.8,49.6 C141,51.4 142.8,52.6 145.2,52.6 C146.4,52.6 147.6,52.6 148.2,52 C151.2,50.2 151.8,46.6 150,43.6 L149.4,42.4 C148.2,40.6 147.6,40 147.6,37.6 C147.6,35.2 148.2,34.6 149.4,32.8 C150.6,30.4 153,27.4 153,21.4 C153,14.2 150.6,11.2 148.2,8.2 L147.6,7.6 C145.8,5.2 142.2,4 139.2,6.4 C136.8,8.2 135.6,11.8 138,14.8 L138.6,16 C140.4,18.4 141,19 141,22 C141,24.4 140.4,25 139.2,26.8 C138,28.6 135.6,31.6 135.6,37.6 L135.6,37.6 Z" id="Shape"></path>
            <path d="M203.4,37.6 C203.4,43.6 205.2,46.6 207,49 L207.6,49.6 C208.8,51.4 210.6,52.6 213,52.6 C214.2,52.6 215.4,52.6 216,52 C219,50.2 219.6,46.6 217.8,43.6 L217.2,42.4 C216,40.6 215.4,40 215.4,37.6 C215.4,35.2 216,34.6 217.2,32.8 C218.4,30.4 220.8,27.4 220.8,21.4 C220.8,14.2 218.4,11.2 216,8.2 L215.4,7.6 C213.6,5.2 210,4 207,6.4 C204,8.8 203.4,11.8 205.8,14.8 L206.4,16 C208.2,18.4 208.8,19 208.8,22 C208.8,24.4 208.2,25 207,26.8 C205.8,28.6 203.4,31.6 203.4,37.6 L203.4,37.6 Z" id="Shape"></path>
            <path d="M169.8,40.6 C169.8,47.8 172.2,51.4 174,54.4 L174.6,55.6 C175.8,57.4 177.6,58.6 180,58.6 C181.2,58.6 182.4,58.6 183,58 C186,56.2 186.6,52.6 184.8,49.6 L184.2,48.4 C182.4,46 181.8,44.8 181.8,41.2 C181.8,37.6 183,36.4 184.2,34 C186,31 188.4,27.4 188.4,20.2 C188.4,11.8 185.4,7.6 183,4 L182.4,2.8 C180.6,0.4 177,-0.8 174,1.6 C171.6,3.4 170.4,7 172.8,10 L174,11.2 C176.4,14.2 177.6,16 177.6,20.2 C177.6,23.8 176.4,25 175.2,27.4 C172.2,29.2 169.8,33.4 169.8,40.6 L169.8,40.6 Z" id="Shape"></path>
            <path d="M388.2,380 L358.8,380 L358.8,296.6 C358.8,254.6 324.6,220.4 282.6,220.4 L271.2,220.4 L270,192.2 C270,190.4 270,189.2 270.6,187.4 L273,176 C274.8,168.2 273.6,159.8 268.8,153.2 C264.6,146.6 258,142.4 250.2,141.2 C234,138.8 208.8,135.8 179.4,135.8 C150,135.8 124.2,138.8 108.6,141.2 C100.8,142.4 94.2,146.6 90,153.2 C85.2,159.8 84,168.2 85.8,176 L88.2,187.4 C88.8,189.2 88.8,190.4 88.8,192.2 L87.6,220.4 L76.2,220.4 C34.2,220.4 0,254.6 0,296.6 L0,418.4 C0,432.2 11.4,443.6 25.2,443.6 L31.2,443.6 L31.2,450.8 C31.2,457.4 36.6,462.8 43.2,462.8 L57,462.8 C63.6,462.8 69,457.4 69,450.8 L69,443.6 L291.6,443.6 L291.6,450.8 C291.6,457.4 297,462.8 303.6,462.8 L317.4,462.8 C324,462.8 329.4,457.4 329.4,450.8 L329.4,443.6 L335.4,443.6 C349.2,443.6 360.6,432.2 360.6,418.4 L360.6,416 L371.4,416 C386.4,416 398.4,404 398.4,389 C397.2,383.6 393,380 388.2,380 L388.2,380 Z M99.6,184.4 L97.2,173 C96,168.2 97.2,163.4 99.6,159.2 C102,155.6 105.6,153.2 109.8,152.6 C125.4,150.2 150,147.8 178.8,147.8 C207.6,147.8 232.2,150.8 247.8,152.6 C252,153.2 255.6,155.6 258,159.2 C260.4,163.4 261.6,168.2 260.4,173 L258,184.4 C257.4,187.4 257.4,189.8 257.4,192.8 L258.6,220.4 L99,220.4 L100.2,192.8 C100.2,189.8 100.2,187.4 99.6,184.4 L99.6,184.4 Z M55.8,450.8 L42.6,450.8 L42.6,443.6 L55.8,443.6 L55.8,450.8 L55.8,450.8 Z M315.6,450.8 L302.4,450.8 L302.4,443.6 L315.6,443.6 L315.6,450.8 L315.6,450.8 Z M346.8,418.4 C346.8,425.6 340.8,431.6 333.6,431.6 L24.6,431.6 C17.4,431.6 11.4,425.6 11.4,418.4 L11.4,296.6 C11.4,261.2 40.2,232.4 75.6,232.4 L282.6,232.4 C318,232.4 346.8,261.2 346.8,296.6 L346.8,380 L346.8,416 L346.8,418.4 L346.8,418.4 Z M370.2,404 L359.4,404 L359.4,392 L385.2,392 C383.4,398.6 377.4,404 370.2,404 L370.2,404 Z" id="Shape"></path>
            <path d="M49.2,371 C36,371 25.2,381.8 25.2,395 C25.2,408.2 36,419 49.2,419 C62.4,419 73.2,408.2 73.2,395 C73.2,381.8 62.4,371 49.2,371 L49.2,371 Z M49.2,407 C42.6,407 37.2,401.6 37.2,395 C37.2,388.4 42.6,383 49.2,383 C55.8,383 61.2,388.4 61.2,395 C61.2,401.6 55.8,407 49.2,407 L49.2,407 Z" id="Shape"></path>
        </g>
    </g>
</svg>