<?xml version="1.0" encoding="UTF-8" standalone="no"?>
<svg width="441px" height="465px" viewBox="0 0 441 465" version="1.1" xmlns="http://www.w3.org/2000/svg" xmlns:xlink="http://www.w3.org/1999/xlink">
    <!-- Generator: Sketch 39.1 (31720) - http://www.bohemiancoding.com/sketch -->
    <title>Shape</title>
    <desc>Created with Sketch.</desc>
    <defs></defs>
    <g id="Page-1" stroke="none" stroke-width="1" fill="none" fill-rule="evenodd">
        <path d="M379.105263,448.736842 L379.105263,417.789474 C379.105263,413.534211 375.623684,410.052632 371.368421,410.052632 C367.113158,410.052632 363.631579,413.534211 363.631579,417.789474 L363.631579,448.736842 L355.894737,448.736842 L355.894737,433.263158 C355.894737,429.007895 352.413158,425.526316 348.157895,425.526316 C343.902632,425.526316 340.421053,429.007895 340.421053,433.263158 L340.421053,448.736842 L332.684211,448.736842 L332.684211,417.789474 C332.684211,413.534211 329.202632,410.052632 324.947368,410.052632 C320.692105,410.052632 317.210526,413.534211 317.210526,417.789474 L317.210526,448.736842 L309.241579,448.736842 C308.003684,411.522632 299.106316,250.828421 239.223158,151.719474 C253.226842,145.916842 263.052632,132.067895 263.052632,116.052632 C263.052632,114.582632 262.743158,113.19 262.588421,111.72 L283.942105,105.994737 L288.738947,94.0026316 L298.874211,101.971579 L388.544211,77.91 L386.532632,70.4052632 C381.503684,51.45 353.496316,38.6842105 316.978421,38.6842105 C303.129474,38.6842105 289.125789,40.5410526 275.431579,44.2547368 C250.054737,51.0631579 226.457368,64.0610526 210.364737,80.0763158 C210.055263,80.2310526 209.668421,80.2310526 209.281579,80.3857895 C199.301053,58.9547368 178.798421,37.2915789 153.885789,22.2047368 C130.520526,8.12368421 103.828421,0 80.5405263,0 C60.7342105,0 46.2663158,5.88 39.7673684,16.4794737 L35.8215789,23.1331579 L115.201579,71.1789474 L127.193684,66.3821053 L128.508947,79.2252632 L138.257368,85.1052632 C124.717895,85.1826316 110.946316,87.0394737 97.4842105,90.5984211 C73.1905263,97.0973684 50.9084211,109.012105 34.7384211,124.098947 C18.2589474,139.495263 10.8315789,155.82 14.3905263,168.972632 L16.4021053,176.477368 L105.994737,152.415789 L110.791579,140.423684 L120.926842,148.392632 L141.274737,142.976842 C140.114211,146.690526 139.263158,150.636316 139.263158,154.736842 C139.263158,176.090526 156.593684,193.421053 177.947368,193.421053 C186.69,193.421053 194.736316,190.403684 201.235263,185.452105 C202.782632,194.272105 204.252632,203.092105 205.567895,211.757368 C205.8,213.072632 205.954737,214.465263 206.186842,215.703158 C207.811579,226.844211 209.358947,237.830526 210.596842,248.507368 L210.596842,248.662105 C222.588947,349.163684 215.471053,420.033158 189.784737,448.814211 L185.684211,448.814211 L185.684211,425.603684 C185.684211,421.348421 182.202632,417.866842 177.947368,417.866842 C173.692105,417.866842 170.210526,421.348421 170.210526,425.603684 L170.210526,448.814211 L146.767895,448.814211 C151.642105,442.315263 154.736842,434.346316 154.736842,425.603684 C154.736842,404.25 137.406316,386.919474 116.052632,386.919474 C94.6989474,386.919474 77.3684211,404.25 77.3684211,425.603684 C77.3684211,434.346316 80.3857895,442.315263 85.3373684,448.814211 L0,448.814211 L0,464.287895 L193.421053,464.287895 L301.736842,464.287895 L441,464.287895 L441,448.814211 L379.105263,448.814211 L379.105263,448.736842 Z M92.8421053,425.526316 C92.8421053,412.760526 103.286842,402.315789 116.052632,402.315789 C128.818421,402.315789 139.263158,412.760526 139.263158,425.526316 C139.263158,438.292105 128.818421,448.736842 116.052632,448.736842 C103.286842,448.736842 92.8421053,438.292105 92.8421053,425.526316 L92.8421053,425.526316 Z M214.001053,168.585789 C214.233158,168.044211 214.310526,167.502632 214.465263,167.038421 C215.006842,165.413684 215.548421,163.788947 215.935263,162.009474 C216.399474,159.611053 216.631579,157.212632 216.631579,154.736842 L216.631579,153.963158 C216.786316,153.963158 217.018421,153.963158 217.173158,154.040526 C219.107368,154.427368 221.041579,154.659474 222.975789,154.736842 C226.147895,159.688421 229.165263,164.872105 232.027895,170.210526 L214.310526,170.210526 C214.155789,169.668947 214.078421,169.127368 214.001053,168.585789 L214.001053,168.585789 Z M217.095789,185.684211 L239.842105,185.684211 C240.074211,186.148421 240.228947,186.612632 240.461053,186.999474 C241.931053,190.094211 243.323684,193.343684 244.716316,196.593158 C245.180526,197.676316 245.644737,198.682105 246.031579,199.765263 C247.269474,202.705263 248.43,205.645263 249.667895,208.662632 C250.132105,209.900526 250.673684,211.215789 251.137895,212.453684 C252.375789,215.780526 253.613684,219.107368 254.774211,222.511579 C255.857368,225.683684 256.940526,228.933158 258.023684,232.182632 C258.410526,233.343158 258.797368,234.426316 259.106842,235.586842 C259.571053,236.979474 259.957895,238.372105 260.422105,239.764737 L225.142105,239.764737 C222.898421,221.505789 220.113158,203.324211 217.095789,185.684211 L217.095789,185.684211 L217.095789,185.684211 Z M227.076316,255.315789 L265.064211,255.315789 C270.093158,273.42 274.271053,291.678947 277.675263,309.473684 L231.408947,309.473684 C230.635263,291.756316 229.087895,273.574737 227.076316,255.315789 L227.076316,255.315789 Z M231.950526,324.947368 L280.460526,324.947368 C283.787368,344.134737 286.340526,362.471053 288.197368,379.105263 L229.784211,379.105263 C231.718421,362.238947 232.337368,343.98 231.950526,324.947368 L231.950526,324.947368 Z M226.612105,139.031053 L226.38,139.031053 L224.368421,139.263158 C217.714737,139.263158 212.840526,136.400526 209.823158,133.924737 C207.502105,131.990526 205.567895,129.669474 204.097895,127.038947 C204.097895,126.961579 204.020526,126.961579 204.020526,126.961579 C203.092105,125.182105 202.318421,123.325263 201.854211,121.313684 L201.622105,119.766316 C201.39,118.528421 201.157895,117.290526 201.157895,116.052632 C201.157895,114.892105 201.312632,113.731579 201.467368,112.648421 C201.622105,111.952105 201.699474,111.333158 201.854211,110.559474 L201.931579,110.25 C202.163684,109.321579 202.473158,108.315789 202.782632,107.387368 C203.169474,106.458947 203.711053,105.530526 204.175263,104.602105 C204.33,104.37 204.407368,104.060526 204.562105,103.828421 C206.032105,101.584737 207.888947,99.4957895 210.055263,97.7936842 L211.602632,96.6331579 C212.608421,96.0142105 213.691579,95.3952632 214.774737,94.9310526 L216.786316,94.2347368 C218.101579,93.7705263 219.339474,93.4610526 220.5,93.2289474 C221.892632,92.9968421 223.130526,92.8421053 224.368421,92.8421053 C225.761053,92.8421053 227.153684,92.9968421 228.546316,93.2289474 C229.087895,93.3063158 229.552105,93.4610526 230.093684,93.6157895 C230.867368,93.8478947 231.641053,94.08 232.414737,94.3121053 C233.033684,94.5442105 233.652632,94.7763158 234.271579,95.0857895 C234.813158,95.3178947 235.277368,95.6273684 235.818947,95.9368421 C240.615789,98.7221053 244.406842,103.132105 246.263684,108.625263 L246.573158,109.631053 C247.192105,111.72 247.578947,113.808947 247.578947,116.052632 C247.578947,128.122105 238.372105,137.870526 226.612105,139.031053 L226.612105,139.031053 Z M279.377368,59.1868421 C291.833684,55.86 304.522105,54.1578947 316.978421,54.1578947 C340.730526,54.1578947 358.757368,60.3473684 367.035789,67.7747368 L302.355789,85.1052632 L282.085263,69.1673684 L272.491579,93.0742105 L257.868947,96.9426316 C257.791579,96.7878947 257.636842,96.6331579 257.559474,96.4784211 C256.553684,94.8536842 255.470526,93.2289474 254.31,91.7589474 C253.923158,91.2947368 253.536316,90.7531579 253.072105,90.2889474 C251.911579,89.0510526 250.751053,87.8905263 249.435789,86.8073684 C248.816842,86.2657895 248.197895,85.7242105 247.501579,85.1826316 C246.341053,84.2542105 245.025789,83.4805263 243.787895,82.7068421 C242.936842,82.1652632 242.008421,81.7010526 241.08,81.2368421 C239.842105,80.6178947 238.604211,80.1536842 237.366316,79.6894737 C236.824737,79.4573684 236.283158,79.1478947 235.664211,78.9931579 C248.275263,70.4052632 263.362105,63.5194737 279.377368,59.1868421 L279.377368,59.1868421 Z M116.594211,53.9257895 L59.4189474,19.3421053 C64.5252632,16.8663158 71.9526316,15.4736842 80.5405263,15.4736842 C101.043158,15.4736842 124.872632,22.7463158 145.839474,35.5121053 C173.305263,52.1463158 189.707368,73.9642105 196.361053,89.5152632 C195.742105,90.2115789 195.200526,90.9078947 194.581579,91.6815789 C193.962632,92.3778947 193.343684,93.0742105 192.802105,93.8478947 C192.260526,94.6215789 191.796316,95.4726316 191.254737,96.3236842 C191.1,96.5557895 191.022632,96.7105263 190.867895,96.9426316 C186.999474,94.6989474 182.589474,92.7647368 177.792632,91.14 L143.131579,70.0184211 L140.578421,44.3321053 L116.594211,53.9257895 L116.594211,53.9257895 Z M104.137895,115.588421 L94.5442105,139.495263 L29.9415789,156.825789 C32.0305263,150.404211 37.4463158,142.822105 45.2605263,135.472105 C59.4189474,122.242105 79.9215789,111.410526 101.43,105.607895 C113.886316,102.281053 126.497368,100.578947 138.953684,100.578947 C150.791053,100.578947 161.854737,102.203684 170.984211,104.988947 L185.761579,113.886316 C185.761579,114.273158 185.684211,114.66 185.684211,115.046842 L181.119474,116.284737 L180.577895,116.284737 C179.726842,116.207368 178.875789,116.052632 177.947368,116.052632 C177.483158,116.052632 177.096316,116.207368 176.632105,116.207368 C174.852632,116.207368 173.150526,116.439474 171.371053,116.748947 C170.752105,116.826316 170.133158,116.903684 169.514211,117.058421 C168.044211,117.367895 166.574211,117.909474 165.104211,118.451053 C164.098421,118.837895 163.092632,119.147368 162.086842,119.534211 C161.545263,119.766316 161.003684,120.153158 160.462105,120.462632 C158.837368,121.313684 157.29,122.087368 155.82,123.093158 L124.408421,131.526316 L104.137895,115.588421 L104.137895,115.588421 Z M177.947368,177.947368 C165.181579,177.947368 154.736842,167.502632 154.736842,154.736842 C154.736842,147.309474 158.295789,140.810526 163.711579,136.555263 L164.021053,136.323158 C165.104211,135.549474 166.187368,134.853158 167.347895,134.234211 C167.502632,134.156842 167.734737,134.002105 167.889474,133.924737 C168.740526,133.537895 169.514211,133.228421 170.365263,132.918947 C171.061579,132.686842 171.835263,132.454737 172.531579,132.222632 C173.073158,132.067895 173.537368,131.990526 174.078947,131.913158 C174.93,131.758421 175.858421,131.681053 176.709474,131.681053 C177.715263,131.681053 178.643684,131.603684 179.649474,131.758421 L182.202632,132.067895 L182.28,132.067895 C185.452105,132.686842 188.546842,134.002105 191.332105,136.013684 C191.332105,136.013684 191.332105,136.013684 191.332105,136.091053 C192.183158,137.561053 193.188947,138.876316 194.272105,140.191579 C194.581579,140.578421 194.891053,140.965263 195.200526,141.274737 C196.206316,142.435263 197.289474,143.595789 198.45,144.678947 C199.068947,145.916842 199.610526,147.232105 199.997368,148.47 C200.074737,148.779474 200.229474,149.088947 200.306842,149.398421 C200.771053,151.177895 201.080526,152.957368 201.080526,154.814211 C201.080526,158.063684 200.306842,161.390526 198.836842,164.485263 C198.836842,164.485263 198.836842,164.485263 198.836842,164.562632 C195.200526,172.376842 187.231579,177.947368 177.947368,177.947368 L177.947368,177.947368 Z M209.281579,448.736842 C218.256316,434.423684 224.213684,415.932632 227.772632,394.578947 L289.899474,394.578947 C292.297895,419.182105 293.381053,438.601579 293.767895,448.736842 L209.281579,448.736842 L209.281579,448.736842 Z" id="Shape" fill="#000033"></path>
    </g>
</svg>